<svg id="Layer_1" data-name="Layer 1" xmlns="http://www.w3.org/2000/svg" viewBox="0 0 42.37 32.27"><defs><style>.cls-1{fill:transparent;}.cls-2{fill:#010101;}.cls-3{fill:#fff;}</style></defs><title>Artboard 3</title><rect class="cls-1" width="42.37" height="32.36"/><path class="cls-2" d="M39.73,24.61a.29.29,0,0,0-.08.14.28.28,0,0,0,.08.15.25.25,0,0,0,.15.08.29.29,0,0,0,.23-.23.23.23,0,0,0-.08-.14.22.22,0,0,0-.15-.08.25.25,0,0,0-.15.08M19.87,23.19c0,.08,0,.64-.05,1.25s-.05,1.53-.08,2-.06,1.82-.07,2.93c0,1.38,0,2-.06,2.08s0,.06-.06,0a35.41,35.41,0,0,1-.18-5.14c0-1.2.06-1.76.16-2.68l0-.5.11-.06c.17-.09.19-.08.18.08M24.76,21c0,.34.44,2.52.67,3.61l.22,1.12-.12.11a2.57,2.57,0,0,1-1.11.64.63.63,0,0,1-.43,0,.52.52,0,0,1-.38-.33,6.31,6.31,0,0,1-.05-1.61,10.55,10.55,0,0,1,.53-2.37,5.4,5.4,0,0,1,.62-1.36,1.09,1.09,0,0,1,.05.19m.08-.74s0,0,0,0,0,0,0,0,0,0,0,0l0,0M20,20.69c0,.43,0,1.09-.05,1.47,0,.77,0,.7-.23.77l-.07,0,.07-.66c.14-1.19.29-2.39.3-2.37s0,.35,0,.77m-.36-4.43a3.06,3.06,0,0,0,.44.12c.23,0,.22,0,.18.61s-.08.83-.36,2.73c-.09.6-.39,3.12-.39,3.24a16.4,16.4,0,0,1-2.89.91L16,24s0-.09.1-.24c.22-.38.88-1.77,1.08-2.26a26.83,26.83,0,0,0,1.51-5c.07-.33.12-.59.12-.6l.24.12a3.15,3.15,0,0,0,.55.22m1-1.26s0,0,0,0,0-.06,0-.05a.08.08,0,0,1,0,.07m-1.74-.26s0,.22-.07.45a2.19,2.19,0,0,1-.08.42.92.92,0,0,1-.27-.26c-.15-.19-.17-.38-.05-.46.28-.17.5-.25.47-.15m1.61-.41c0,.06-.05.53-.09,1l-.08.91-.11,0a4,4,0,0,1-1-.33,2,2,0,0,1-.33-.19A9.26,9.26,0,0,1,19,14.63s.28-.1.6-.19l.65-.2c.16-.06.18-.05.16.09m.27-.17a3.72,3.72,0,0,1-.07.39l-.06.32,0-.27c0-.35,0-.5.08-.5s0,0,0,.06m.9.07a5,5,0,0,1,.15,1.11.72.72,0,0,1-.1.46c-.15.31-.41.44-.93.48-.26,0-.25.09-.12-.72A13,13,0,0,1,20.9,14a3.76,3.76,0,0,1,.57-.22s.07.09.14.42m2.06.07c.31,1.65.52,2.89.74,4.45l.2,1.4c0,.05-1.48,1.08-2.11,1.47a14.45,14.45,0,0,1-2.44,1.13c0-.05.05-2.1.1-2.76s.22-2.86.27-3.22l0-.29.25,0c.77-.07,1.16-.38,1.21-1a5.62,5.62,0,0,0-.16-1.35,3.26,3.26,0,0,1-.07-.36s.07-.06.14-.09c.25-.1,1-.5,1.29-.66l.26-.16,0,.16c0,.1.14.68.25,1.3M21.32,13a3.19,3.19,0,0,1,.12.64,1,1,0,0,1-.28.13l-.25.1v-.11c0-.17.22-1.37.22-1.39s0,.09.18.63M21,11.77c0,.19,0,.26-.1,1.14-.08.52-.15,1-.17,1s0,0,0,0,0-.57.1-1.22.14-1.18.15-1.16a1,1,0,0,1,.07.25m18.27-1a3.46,3.46,0,0,1-.13,1.34,2.51,2.51,0,0,1-.44.86c-.15.19-.19.23-.2.18a9.61,9.61,0,0,1,.08-1.58c.12-.51.45-1,.6-1a.23.23,0,0,1,.09.16M25.9,9.83c-.07.28-.75,1.38-.68,1.13a4.35,4.35,0,0,1,.37-1c.11-.16.32-.36.36-.33a.73.73,0,0,1-.05.2m-3.82-2.3A7.5,7.5,0,0,1,22.59,9c.19.72.76,3.59.72,3.64a8.11,8.11,0,0,1-1.28.73,2.33,2.33,0,0,1-.38.16s-.11-.39-.22-.85l-.22-.84,0-.31c0-.17.07-.57.1-.9a18,18,0,0,1,.42-3c.11-.39.15-.41.31-.15M20.48,8.7c0,.53.18,1.45.26,1.83l.06.28L20.68,12c-.07.65-.15,1.37-.17,1.59l0,.42-.36.12L19,14.43s0-.18,0-.4a26.05,26.05,0,0,0,.13-2.84l0-1.49.19-.48A18.69,18.69,0,0,0,20,7.39c.06-.25.17-.63.23-.86s.13-.44.14-.49,0,.44,0,1.07,0,1.34.06,1.59M11.63,1.63c3,.34,4.78,1.29,6.06,3.22A8.67,8.67,0,0,1,19,9.14l0,.52-.29.61a17.58,17.58,0,0,1-4.52,5.85,8.15,8.15,0,0,1-3,1.5,5.19,5.19,0,0,1-1.43.15,7.49,7.49,0,0,1-2.43-.37,6.4,6.4,0,0,1-2.56-1.54,7.65,7.65,0,0,1-2.31-4.41,10.56,10.56,0,0,1,.71-6A6.89,6.89,0,0,1,4.78,3.3,8.69,8.69,0,0,1,7.12,2a8.52,8.52,0,0,1,1.37-.33l.36-.05c.21,0,2.34,0,2.78.06M22.14.45a8.75,8.75,0,0,0-.28,1.68c-.13,1.2-.34,3-.54,4.52-.12.86-.27,2-.33,2.55s-.12,1-.13,1a10.23,10.23,0,0,1-.17-1.11c0-.32-.06-.87-.07-2.15,0-1.58,0-1.72-.08-1.75s-.14,0-.6,1.77a14.4,14.4,0,0,1-.57,1.85l-.18.5,0-.28a8.43,8.43,0,0,0-1.67-4.72c-1.54-2-4.14-3-7.95-2.9a6.65,6.65,0,0,0-2,.24,7.11,7.11,0,0,0-3.5,2.14,8.31,8.31,0,0,0-1.76,3.9,11.86,11.86,0,0,0,0,3.76,7.89,7.89,0,0,0,1.39,3.39,7.24,7.24,0,0,0,5,3,9.49,9.49,0,0,0,2.2,0,7,7,0,0,0,2-.71,8.51,8.51,0,0,0,2.15-1.54,17.62,17.62,0,0,0,3.71-5l.29-.57v.21c0,.61-.09,3.11-.19,4l0,.21-.17.06a1.83,1.83,0,0,0-.54.28s-.06.1-.06.24,0,.2.19.41a2.09,2.09,0,0,0,.28.27c.11.06.11.08,0,.7a27.26,27.26,0,0,1-1.69,5.38,14.66,14.66,0,0,1-1.19,2.26c-.1,0-.83.18-1.14.23s-2.19.28-2.75.33a8.32,8.32,0,0,0-1,.15l-.24.06c-.08,0-.14.06-.14.09s0,.06.59,0l.72-.08,1.34-.15c1.13-.14,1.67-.22,2.18-.33a1.12,1.12,0,0,1,.31-.05,8.2,8.2,0,0,1-.69,1A5.47,5.47,0,0,1,12.6,27a4,4,0,0,1-1.64.24,4.08,4.08,0,0,1-1.13-.09,5.82,5.82,0,0,1-1.43-.5,7.22,7.22,0,0,1-2.21-1.55,15.33,15.33,0,0,1-2.21-3,22.14,22.14,0,0,1-2.3-5.42A27.46,27.46,0,0,1,.87,12,34.28,34.28,0,0,1,1,5.22C1,4.8,1.2,4,1.27,3.72a2.66,2.66,0,0,1,.42-.82q.21-.27.12-.27a2.48,2.48,0,0,0-.57.74A12.5,12.5,0,0,0,.62,7c-.06.71-.06,3.34,0,4.13a28.56,28.56,0,0,0,.66,4.72,18.85,18.85,0,0,0,1,3.06,20.75,20.75,0,0,0,2.28,4.36,10.43,10.43,0,0,0,1.57,1.95A6.34,6.34,0,0,0,7.5,26.38a6.55,6.55,0,0,0,3.69,1.08,5.37,5.37,0,0,0,4.45-2.93c.15-.22.22-.31.28-.32.91-.21,2.15-.55,3-.83a4.6,4.6,0,0,1,.51-.16s0,.26-.05.57a28.72,28.72,0,0,0-.15,3.95c0,2.79.05,3.55.24,3.91.11.2.18.2.25,0a9.85,9.85,0,0,0,.09-2.06c0-1.05,0-2.27.07-2.72s.07-1.51.11-2.34S20,23,20.05,23l.4-.17,1.21-.58a17.65,17.65,0,0,0,2.6-1.62c.34-.25.38-.27.4-.21s0,.14-.12.3A5.9,5.9,0,0,0,24,21.85a20.65,20.65,0,0,0-.54,2,14.81,14.81,0,0,0-.06,1.94.83.83,0,0,0,.16.52.48.48,0,0,0,.37.26.71.71,0,0,0,.5,0A2.37,2.37,0,0,0,25.55,26c.06-.06.11-.1.12-.09s.13.52.27,1.15.28,1.27.32,1.44c.12.45.12.55.06.57s-.39-.16-1.28-.77a8.35,8.35,0,0,0-1.31-.85c-.17,0,.16.24,1.83,1.36.61.4.66.43.81.39l.12,0v-.2a4.06,4.06,0,0,0-.11-.59c-.05-.21-.2-.89-.33-1.5l-.24-1.1.59-.6a12.65,12.65,0,0,0,1.85-2.2c.36-.61,1.25-2,1.37-2.15s.27-.29.37-.08a2,2,0,0,1,.08.65,7.65,7.65,0,0,0,.15,1.43,2.09,2.09,0,0,0,.62,1.29c.64.56,1.86.59,3.83.1a10.13,10.13,0,0,0,1.83-.62c.57-.24,1.44-.57,1.5-.57l.44-.17c.47-.18.54-.19.57-.09s.1.05.13-.09,0-.22-.26-.16a1.79,1.79,0,0,0-.35.11l-.71.26c-.57.21-.72.27-1.68.67a11.65,11.65,0,0,1-3.65.86,1.91,1.91,0,0,1-1.84-.75,5,5,0,0,1-.43-2.19,2.74,2.74,0,0,0-.1-.82l-.07-.19H29.7l-.16.2c-.09.11-.47.72-.86,1.34a12.93,12.93,0,0,1-1.25,1.84,14.91,14.91,0,0,1-1.64,1.71c-.05-.05-.62-3.06-.88-4.63l-.06-.38.1-.18c.07-.14.09-.2.07-.27s-.1-.12-.17,0-.05,0-.06,0-.09-.49-.26-1.73-.45-2.9-.82-4.81a7.21,7.21,0,0,1-.14-.78l.22-.15a6.7,6.7,0,0,0,.83-.63c.19-.17.23-.19.21-.12a6.09,6.09,0,0,0-.07,1.31,2.23,2.23,0,0,0,.5,1.58l.15.16h.23a.47.47,0,0,0,.41-.15,2.78,2.78,0,0,0,.76-1.5c.17-.68.45-1.62.52-1.76s.09-.13.12-.13.24.37.34.81.33,1.2.62,2.06c.13.37.27.81.32,1a1.32,1.32,0,0,0,.21.46c.12.15.14.16.24.14s.26-.1.38-.32A4.17,4.17,0,0,0,29.93,14a5.89,5.89,0,0,1,.51-2c.08-.07.11-.08.17,0s.32.34.62,1a5.81,5.81,0,0,0,1.23,2.1c.17.13.18.13.34.11a.39.39,0,0,0,.21-.07,5.52,5.52,0,0,0,.7-2c.18-1.05.29-1.44.39-1.44a1.11,1.11,0,0,1,.25.3,5.19,5.19,0,0,0,1.71,1.71,3.63,3.63,0,0,0,1.09.31,1.44,1.44,0,0,0,.92-.29l.25-.16s0,.06,0,.14a1,1,0,0,0,.14.34.65.65,0,0,0,.3.29c.28.15.51.18,1.65.18h1l-.07.08c-.06.07-.07.09,0,.12s.07,0,.2-.07.22-.23.1-.29a8,8,0,0,0-1.11,0c-.57,0-1.13,0-1.25,0a.75.75,0,0,1-.72-.68l0-.2.22-.26a3.15,3.15,0,0,0,.71-1.82c0-.51,0-.78-.13-.9s-.2-.09-.36,0a1.88,1.88,0,0,0-.54,1,4.39,4.39,0,0,0-.08,1.07c0,.94,0,.87-.32,1.09a1.44,1.44,0,0,1-1.32.17,2.74,2.74,0,0,1-1.44-.93,5.55,5.55,0,0,1-.68-.84c-.07-.11-.18-.26-.24-.34s-.13-.14-.23-.13-.3.24-.45,1.21a6.85,6.85,0,0,1-.35,1.48c-.27.82-.46,1-.77.72a6.9,6.9,0,0,1-1.11-2c-.4-.9-.55-1.12-.79-1.18l-.16,0-.13.14a.82.82,0,0,0-.21.38A17.35,17.35,0,0,0,29.76,14c-.15.89-.37,1.5-.55,1.53s-.21-.14-.36-.64c-.06-.24-.24-.8-.39-1.24s-.32-1-.38-1.23-.13-.52-.17-.64a1.92,1.92,0,0,0-.29-.61.55.55,0,0,0-.28,0c-.11,0-.32.62-.65,1.93A2.69,2.69,0,0,1,26,14.6a.47.47,0,0,1-.3.13c-.12,0-.16,0-.28-.14a1.67,1.67,0,0,1-.38-.86,3.94,3.94,0,0,1,0-1,2.84,2.84,0,0,1,.18-1.29,6,6,0,0,0,1-1.56c.08-.27.08-.28,0-.39s-.17-.12-.36,0-.49.6-.72,1.45a1.35,1.35,0,0,1-.22.57,4.92,4.92,0,0,1-1.29,1c0-.05-.37-1.8-.52-2.56a7.73,7.73,0,0,0-.92-2.74.48.48,0,0,0-.33,0,2.83,2.83,0,0,0-.27.9,20,20,0,0,0-.24,2.07c0,.5-.08,1-.09,1.1l0,.18-.06-.32L21,10.84l.13-1.15c.08-.63.22-1.74.32-2.47.28-2.08.45-3.55.67-5.72.11-1.08.11-1.09.07-1.09s-.05,0-.05,0"/><path class="cls-3" d="M19.6,32.2a.6.6,0,0,1-.5-.36c-.24-.45-.29-1.14-.29-4.1A28.81,28.81,0,0,1,19,23.79c-.83.27-2,.59-2.86.8a.77.77,0,0,0-.11.16,5.83,5.83,0,0,1-4.78,3.12,6.93,6.93,0,0,1-3.92-1.14,6.81,6.81,0,0,1-1.5-1.21,11.08,11.08,0,0,1-1.62-2,21.77,21.77,0,0,1-2.32-4.44A19.6,19.6,0,0,1,.88,16a28.36,28.36,0,0,1-.67-4.79c0-.8,0-3.45,0-4.18A13.88,13.88,0,0,1,.87,3.2s.49-1,.94-1h.25l.14.24c.13.27-.07.53-.19.68a2.2,2.2,0,0,0-.35.68c-.07.22-.23,1-.29,1.45A34.82,34.82,0,0,0,1.27,12a27.75,27.75,0,0,0,.8,4.64,22.22,22.22,0,0,0,2.26,5.32,14,14,0,0,0,2.15,2.9,6.78,6.78,0,0,0,2.09,1.48,5.67,5.67,0,0,0,1.34.47,3.42,3.42,0,0,0,1.05.07,3.57,3.57,0,0,0,1.51-.22,5.08,5.08,0,0,0,2.08-1.55l.16-.2c-.4.06-.88.13-1.59.21l-1.35.15-.7.08c-.61.09-.74.1-.91-.05L10,25.15v-.21c0-.09,0-.37.45-.48l.22-.06a8,8,0,0,1,1.06-.16c.54,0,2.47-.29,2.72-.33s.75-.14,1-.19a22.91,22.91,0,0,0,1-2.06,27.33,27.33,0,0,0,1.66-5.3c0-.17.06-.29.07-.37L18,15.74a.87.87,0,0,1-.29-.68.68.68,0,0,1,.2-.55,2.31,2.31,0,0,1,.6-.33c.06-.52.12-1.55.15-2.44a17.49,17.49,0,0,1-3.3,4.2,8.84,8.84,0,0,1-2.24,1.6,7.41,7.41,0,0,1-2.14.75,10.06,10.06,0,0,1-2.33,0,7.66,7.66,0,0,1-5.28-3.2,8.41,8.41,0,0,1-1.46-3.57,12.09,12.09,0,0,1,0-3.89A8.76,8.76,0,0,1,3.75,3.55,7.65,7.65,0,0,1,7.46,1.28,6.72,6.72,0,0,1,9.53,1c4-.08,6.66.92,8.29,3.05a8.13,8.13,0,0,1,1.54,3.5c.06-.2.12-.43.19-.7.49-1.92.5-1.95.77-2.06l.2-.08.24.13c.18.12.23.14.25,1,.17-1.35.34-2.79.44-3.82a9.71,9.71,0,0,1,.3-1.76L21.84,0l.53,0,.14.14c.14.16.14.16,0,1.4-.2,2-.36,3.4-.6,5.23a.58.58,0,0,1,.41.11c.56.46,1,2.87,1.06,3,.1.52.28,1.42.4,2a5.54,5.54,0,0,0,.7-.59,1.12,1.12,0,0,0,.14-.41,2.79,2.79,0,0,1,.88-1.68.6.6,0,0,1,.88,0c.27.28.21.49.12.79a6.53,6.53,0,0,1-1.06,1.69,4,4,0,0,0-.1,1.05,4,4,0,0,0,0,.92,1.31,1.31,0,0,0,.27.65l0,0A2.38,2.38,0,0,0,26.3,13c.5-2,.65-2.2,1-2.23a.87.87,0,0,1,.58.13,2.25,2.25,0,0,1,.42.81c0,.12.12.42.18.65s.22.77.36,1.2.28.85.37,1.13a5.55,5.55,0,0,0,.14-.71c.1-.61.29-1.5.38-1.8a1.27,1.27,0,0,1,.3-.55l.29-.31.39.09c.46.11.66.47,1.07,1.41a9,9,0,0,0,.94,1.76,3.1,3.1,0,0,0,.19-.48,7.72,7.72,0,0,0,.33-1.41c.14-.91.23-1.5.81-1.55a.61.61,0,0,1,.58.28,4.5,4.5,0,0,1,.27.37,4.91,4.91,0,0,0,.64.78,2.35,2.35,0,0,0,1.25.82,1.06,1.06,0,0,0,1-.12l.13-.09s0-.24,0-.51v-.16a4.65,4.65,0,0,1,.1-1.16,2.26,2.26,0,0,1,.69-1.2.65.65,0,0,1,.86,0,1.4,1.4,0,0,1,.27,1.25,3.5,3.5,0,0,1-.8,2l-.09.1v0c0,.22.1.3.39.35.08,0,.58,0,1.18,0,1.15,0,1.2,0,1.3.08a.58.58,0,0,1,.15.11h.41l-.28.3h0a.64.64,0,0,1-.34.56A.53.53,0,0,1,41,15a.32.32,0,0,1-.06-.08h-.53c-1.16,0-1.47,0-1.84-.24a1,1,0,0,1-.46-.44l0-.06a1.69,1.69,0,0,1-1,.23,3.94,3.94,0,0,1-1.23-.34,5.14,5.14,0,0,1-1.66-1.54c0,.17-.08.39-.13.67a5.6,5.6,0,0,1-.8,2.2.73.73,0,0,1-.44.18.7.7,0,0,1-.65-.19,6,6,0,0,1-1.35-2.26c-.1-.23-.18-.39-.24-.51a10.71,10.71,0,0,0-.28,1.43,5,5,0,0,1-.42,1.57.86.86,0,0,1-.66.51.57.57,0,0,1-.63-.28,1.55,1.55,0,0,1-.29-.59c-.05-.16-.19-.59-.32-1-.26-.78-.44-1.39-.57-1.9-.09.28-.18.6-.25.89A3,3,0,0,1,26.3,15a.8.8,0,0,1-.66.24h-.4L25,15a2.62,2.62,0,0,1-.62-1.84c0-.14,0-.3,0-.47L24,12.9h0c0,.14.06.32.09.51.38,1.92.65,3.51.83,4.83,0,.31.13,1,.19,1.36a.5.5,0,0,1,.3.36.79.79,0,0,1-.12.57l0,0,0,.24c.19,1.12.53,2.95.72,3.92.34-.34.79-.83,1.09-1.19a11.81,11.81,0,0,0,1.22-1.8c.34-.55.77-1.22.88-1.37L29.5,20h.82l.18.45a2.86,2.86,0,0,1,.12,1,4.89,4.89,0,0,0,.38,2,1.54,1.54,0,0,0,1.46.54A11.37,11.37,0,0,0,36,23.15c1-.41,1.13-.47,1.7-.68.3-.1.61-.22.69-.26a3.49,3.49,0,0,1,.42-.13.64.64,0,0,1,.63.11.54.54,0,0,1,.11.55.5.5,0,0,1-.47.45h-.32l0,0-.13.05a3.55,3.55,0,0,1-.53.19c-.15.05-.86.32-1.4.54a9.37,9.37,0,0,1-1.89.64c-2.15.54-3.44.48-4.2-.19a2.46,2.46,0,0,1-.75-1.51,7.85,7.85,0,0,1-.15-1.43c-.32.49-.82,1.28-1.08,1.71a12.86,12.86,0,0,1-1.9,2.28l-.44.44.2.89c.13.6.28,1.27.33,1.48a3.86,3.86,0,0,1,.11.67l0,.53-.44.11c-.33.09-.5,0-1.13-.44-2.11-1.41-2.15-1.43-2-1.8l.08-.29.34,0c.18,0,.18,0,1.53.93l.55.36c-.07-.29-.17-.74-.27-1.19,0-.19-.08-.37-.12-.52a2.52,2.52,0,0,1-.9.39,1.16,1.16,0,0,1-.69,0,.79.79,0,0,1-.59-.43,1.06,1.06,0,0,1-.23-.71,12.26,12.26,0,0,1,.07-2,18.11,18.11,0,0,1,.54-2.05l.09-.23a17.36,17.36,0,0,1-1.87,1.09c-.47.24-1,.5-1.24.59l-.16.07c0,.24,0,.68-.06,1.29,0,.84-.08,1.9-.11,2.35s-.06,1.69-.07,2.7a7.92,7.92,0,0,1-.11,2.2.52.52,0,0,1-.46.41Zm4.94-10.13a.94.94,0,0,0-.06.18A10.59,10.59,0,0,0,24,24.53,7.33,7.33,0,0,0,24,26c0,.07,0,.07.1.09s.1,0,.24,0a2.11,2.11,0,0,0,.88-.5L25,24.66C24.89,24,24.69,22.89,24.54,22.07Zm-5.43-5.56,0,.09a28.49,28.49,0,0,1-1.53,5.06c-.15.36-.53,1.17-.82,1.75,1-.24,2-.56,2.34-.7.08-.73.32-2.68.38-3,.28-1.9.32-2.23.35-2.71a2.06,2.06,0,0,0,0-.21l-.36-.1h0Zm20.28,6.07v0S39.39,22.6,39.39,22.58ZM20.82,16.86c0,.41-.21,2.43-.26,3.15,0,.45-.07,1.51-.09,2.16a18,18,0,0,0,1.81-.9c.52-.32,1.52-1,1.9-1.29,0-.23-.1-.67-.17-1.17-.22-1.55-.43-2.79-.74-4.43-.06-.34-.12-.67-.17-.91-.29.16-.7.37-1,.49V14a5.59,5.59,0,0,1,.16,1.48C22.28,16.05,22,16.73,20.82,16.86ZM9.28,2H8.91L8.54,2a8.94,8.94,0,0,0-1.29.31,8.22,8.22,0,0,0-2.2,1.28,6.44,6.44,0,0,0-1.46,2,10.17,10.17,0,0,0-.68,5.74A7.2,7.2,0,0,0,5.1,15.57,6.11,6.11,0,0,0,7.51,17a7,7,0,0,0,2.3.36,5,5,0,0,0,1.34-.14A7.81,7.81,0,0,0,14,15.8a16.87,16.87,0,0,0,4.41-5.71l.25-.51,0-.41a8.35,8.35,0,0,0-1.26-4.1c-1.21-1.83-2.88-2.71-5.76-3C11.24,2,9.94,2,9.28,2Zm12,12.44c-.05.28-.14.77-.22,1.23l0,.16v.05c.24-.06.28-.15.32-.22s.05-.1.05-.28A3.91,3.91,0,0,0,21.23,14.4Zm-1.95,1.11.07,0a2.51,2.51,0,0,0,.56.22l0-.44c0-.2,0-.4,0-.57l-.25.08-.37.11C19.34,15.1,19.3,15.33,19.28,15.51Zm.34-5.73,0,1.41c0,1.33,0,1.86-.12,2.69l.5-.15.11,0,0-.14c0-.23.09-1,.16-1.6l.12-1.12-.05-.21c-.08-.4-.22-1.33-.26-1.89h0a.66.66,0,0,1,0-.15c-.1.27-.19.54-.29.79Zm2,2,.2.77c0,.14.07.28.1.4a10.61,10.61,0,0,0,1-.53c-.11-.67-.52-2.74-.68-3.35-.06-.23-.12-.45-.19-.65-.09.54-.17,1.27-.26,2.22,0,.33-.07.74-.09.91ZM39.88,25.39a.61.61,0,0,1-.43-.2.63.63,0,0,1-.2-.44.66.66,0,0,1,.2-.43h0a.61.61,0,0,1,.43-.2.67.67,0,0,1,.44.2.71.71,0,0,1,.2.43.69.69,0,0,1-.64.64Z"/></svg>